Ryan Clark being fucked by lucky Lex Steele's where the nigga roll up whatever hole that is hot!

--=[Dados do vídeo]=--
Format                         : AVI
Format/Info                    : Audio Video Interleave
File size                      : 94.7 MiB
Duration                       : 24mn 18s
Overall bit rate mode          : Variable
Overall bit rate               : 545 Kbps
Writing application            : MEncoder dev-SVN-r23862-3.4.6
Writing library                : MPlayer
Comment                        :

Video
ID                             : 0
Format                         : MPEG-4 Visual
Format profile                 : Advanced Simple@L5
Format settings, BVOP          : 2
Format settings, QPel          : Yes
Format settings, GMC           : 3 warppoints
Format settings, Matrix        : Default (H.263)
Codec ID                       : XVID
Codec ID/Hint                  : XviD
Duration                       : 24mn 17s
Bit rate                       : 515 Kbps
Width                          : 320 pixels
Height                         : 240 pixels
Display aspect ratio           : 4:3
Frame rate                     : 23.976 fps
Color space                    : YUV
Chroma subsampling             : 4:2:0
Bit depth                      : 8 bits
Scan type                      : Progressive
Compression mode               : Lossy
Bits/(Pixel*Frame)             : 0.280
Stream size                    : 89.6 MiB (95%)
Writing library                : XviD 1.1.0 (UTC 2005-11-22)

Audio
ID                             : 1
Format                         : MPEG Audio
Format version                 : Version 2.5
Format profile                 : Layer 3
Mode                           : Joint stereo
Mode extension                 : MS Stereo
Codec ID                       : 55
Codec ID/Hint                  : MP3
Duration                       : 24mn 18s
Bit rate mode                  : Variable
Bit rate                       : 22.4 Kbps
Channel(s)                     : 2 channels
Sampling rate                  : 8 000 Hz
Compression mode               : Lossy
Stream size                    : 3.89 MiB (4%)
Alignment                      : Aligned on interleaves
Interleave, duration           : 72 ms (1.73 video frames)
Interleave, preload duration   : 360 ms

--=[Screens]=-- 
http://imageshack.us/a/img708/9296/ryan0000000.jpg 
http://imageshack.us/a/img706/8127/ryan0034906.jpg 
http://imageshack.us/a/img84/3450/ryan0065705.jpg 
http://imageshack.us/a/img37/682/ryan0092101.jpg 
http://imageshack.us/a/img818/41/ryan0143704.jpg 
http://imageshack.us/a/img254/9141/ryan0213410.jpg